<svg width="1280" height="720" xmlns="http://www.w3.org/2000/svg" xmlns:xlink="http://www.w3.org/1999/xlink" overflow="hidden"><defs><filter id="fx0" x="-10%" y="-10%" width="120%" height="120%" filterUnits="userSpaceOnUse" primitiveUnits="userSpaceOnUse"><feComponentTransfer color-interpolation-filters="sRGB"><feFuncR type="discrete" tableValues="0 0"/><feFuncG type="discrete" tableValues="0 0"/><feFuncB type="discrete" tableValues="0 0"/><feFuncA type="linear" slope="0.4" intercept="0"/></feComponentTransfer><feGaussianBlur stdDeviation="1.77778 1.77778"/></filter><filter id="fx1" x="-10%" y="-10%" width="120%" height="120%" filterUnits="userSpaceOnUse" primitiveUnits="userSpaceOnUse"><feComponentTransfer color-interpolation-filters="sRGB"><feFuncR type="discrete" tableValues="0 0"/><feFuncG type="discrete" tableValues="0 0"/><feFuncB type="discrete" tableValues="0 0"/><feFuncA type="linear" slope="0.4" intercept="0"/></feComponentTransfer><feGaussianBlur stdDeviation="1.77778 1.77778"/></filter><clipPath id="clip2"><rect x="0" y="0" width="1280" height="720"/></clipPath><clipPath id="clip3"><rect x="-2" y="-2" width="141" height="673"/></clipPath><clipPath id="clip4"><rect x="0" y="0" width="139" height="670"/></clipPath><clipPath id="clip5"><rect x="-2" y="-2" width="1295" height="79"/></clipPath><clipPath id="clip6"><rect x="0" y="0" width="1292" height="77"/></clipPath></defs><g clip-path="url(#clip2)"><rect x="0" y="0" width="1280" height="720" fill="#FFFFFF"/><rect x="0" y="0" width="1280" height="720" fill="#E7E6E6"/><g clip-path="url(#clip3)" filter="url(#fx0)" transform="translate(-3 56)"><g clip-path="url(#clip4)"><rect x="7" y="7" width="125" height="657" fill="#222A35"/></g></g><rect x="0" y="63" width="125" height="657" fill="#222A35"/><g clip-path="url(#clip5)" filter="url(#fx1)" transform="translate(-6 -3)"><g clip-path="url(#clip6)"><rect x="6" y="7" width="1280" height="63" fill="#222A35"/></g></g><rect x="0" y="0" width="1280" height="63" fill="#222A35"/><path d="M135 77.4002C135 73.8655 137.865 71 141.4 71L347.6 71C351.135 71 354 73.8655 354 77.4002L354 160.6C354 164.135 351.135 167 347.6 167L141.4 167C137.865 167 135 164.135 135 160.6Z" fill="#FFFFFF" fill-rule="evenodd"/><path d="M1052 77.4002C1052 73.8655 1054.87 71 1058.4 71L1264.6 71C1268.13 71 1271 73.8655 1271 77.4002L1271 160.6C1271 164.135 1268.13 167 1264.6 167L1058.4 167C1054.87 167 1052 164.135 1052 160.6Z" fill="#FFFFFF" fill-rule="evenodd"/><path d="M365 77.4003C365 73.8655 367.866 71 371.4 71L576.6 71C580.134 71 583 73.8655 583 77.4003L583 160.6C583 164.134 580.134 167 576.6 167L371.4 167C367.866 167 365 164.134 365 160.6Z" fill="#FFFFFF" fill-rule="evenodd"/><path d="M594 77.4002C594 73.8655 596.865 71 600.4 71L806.6 71C810.135 71 813 73.8655 813 77.4002L813 160.6C813 164.135 810.135 167 806.6 167L600.4 167C596.865 167 594 164.135 594 160.6Z" fill="#FFFFFF" fill-rule="evenodd"/><path d="M823 77.4002C823 73.8655 825.865 71 829.4 71L1035.6 71C1039.13 71 1042 73.8655 1042 77.4002L1042 160.6C1042 164.135 1039.13 167 1035.6 167L829.4 167C825.865 167 823 164.135 823 160.6Z" fill="#FFFFFF" fill-rule="evenodd"/><path d="M135 183.444C135 179.885 137.885 177 141.444 177L882.556 177C886.115 177 889 179.885 889 183.444L889 434.556C889 438.115 886.115 441 882.556 441L141.444 441C137.885 441 135 438.115 135 434.556Z" fill="#FFFFFF" fill-rule="evenodd"/><path d="M898 183.444C898 179.885 900.885 177 904.444 177L1264.56 177C1268.11 177 1271 179.885 1271 183.444L1271 434.556C1271 438.115 1268.11 441 1264.56 441L904.444 441C900.885 441 898 438.115 898 434.556Z" fill="#FFFFFF" fill-rule="evenodd"/><path d="M133 455.42C133 451.874 135.874 449 139.42 449L500.58 449C504.126 449 507 451.874 507 455.42L507 705.58C507 709.126 504.126 712 500.58 712L139.42 712C135.874 712 133 709.126 133 705.58Z" fill="#FFFFFF" fill-rule="evenodd"/><path d="M516 455.42C516 451.874 518.874 449 522.42 449L882.58 449C886.126 449 889 451.874 889 455.42L889 705.58C889 709.126 886.126 712 882.58 712L522.42 712C518.874 712 516 709.126 516 705.58Z" fill="#FFFFFF" fill-rule="evenodd"/><path d="M898 455.42C898 451.874 900.874 449 904.42 449L1264.58 449C1268.13 449 1271 451.874 1271 455.42L1271 705.58C1271 709.126 1268.13 712 1264.58 712L904.42 712C900.874 712 898 709.126 898 705.58Z" fill="#FFFFFF" fill-rule="evenodd"/></g></svg>