<svg width="1280" height="720" xmlns="http://www.w3.org/2000/svg" xmlns:xlink="http://www.w3.org/1999/xlink" overflow="hidden"><defs><filter id="fx0" x="-10%" y="-10%" width="120%" height="120%" filterUnits="userSpaceOnUse" primitiveUnits="userSpaceOnUse"><feComponentTransfer color-interpolation-filters="sRGB"><feFuncR type="discrete" tableValues="0 0"/><feFuncG type="discrete" tableValues="0 0"/><feFuncB type="discrete" tableValues="0 0"/><feFuncA type="linear" slope="0.4" intercept="0"/></feComponentTransfer><feGaussianBlur stdDeviation="1.77778 1.77778"/></filter><filter id="fx1" x="-10%" y="-10%" width="120%" height="120%" filterUnits="userSpaceOnUse" primitiveUnits="userSpaceOnUse"><feComponentTransfer color-interpolation-filters="sRGB"><feFuncR type="discrete" tableValues="0 0"/><feFuncG type="discrete" tableValues="0 0"/><feFuncB type="discrete" tableValues="0 0"/><feFuncA type="linear" slope="0.4" intercept="0"/></feComponentTransfer><feGaussianBlur stdDeviation="1.77778 1.77778"/></filter><clipPath id="clip2"><rect x="0" y="0" width="1280" height="720"/></clipPath><clipPath id="clip3"><rect x="-2" y="-2" width="143" height="673"/></clipPath><clipPath id="clip4"><rect x="0" y="0" width="139" height="670"/></clipPath><clipPath id="clip5"><rect x="-2" y="-2" width="1295" height="79"/></clipPath><clipPath id="clip6"><rect x="0" y="0" width="1292" height="77"/></clipPath></defs><g clip-path="url(#clip2)"><rect x="0" y="0" width="1280" height="720" fill="#FFFFFF"/><rect x="0" y="0" width="1280" height="720" fill="#E7E6E6"/><g clip-path="url(#clip3)" filter="url(#fx0)" transform="translate(-3 56)"><g clip-path="url(#clip4)"><rect x="7" y="7" width="125.011" height="657" fill="#222A35"/></g></g><rect x="0" y="63" width="125.011" height="657" fill="#222A35"/><g clip-path="url(#clip5)" filter="url(#fx1)" transform="translate(-6 -3)"><g clip-path="url(#clip6)"><rect x="6" y="7" width="1280" height="63" fill="#222A35"/></g></g><rect x="0" y="0" width="1280" height="63" fill="#222A35"/><path d="M135 80.4004C135 76.8656 137.866 74 141.4 74L311.6 74C315.134 74 318 76.8656 318 80.4004L318 163.6C318 167.134 315.134 170 311.6 170L141.4 170C137.866 170 135 167.134 135 163.6Z" fill="#FFFFFF" fill-rule="evenodd"/><path d="M898 80.4003C898 76.8655 900.865 74 904.4 74L1073.6 74C1077.13 74 1080 76.8655 1080 80.4003L1080 163.6C1080 167.135 1077.13 170 1073.6 170L904.4 170C900.865 170 898 167.135 898 163.6Z" fill="#FFFFFF" fill-rule="evenodd"/><path d="M326 80.4003C326 76.8655 328.865 74 332.4 74L501.6 74C505.135 74 508 76.8655 508 80.4003L508 163.6C508 167.135 505.135 170 501.6 170L332.4 170C328.865 170 326 167.135 326 163.6Z" fill="#FFFFFF" fill-rule="evenodd"/><path d="M517 80.4003C517 76.8655 519.865 74 523.4 74L692.6 74C696.135 74 699 76.8655 699 80.4003L699 163.6C699 167.135 696.135 170 692.6 170L523.4 170C519.865 170 517 167.135 517 163.6Z" fill="#FFFFFF" fill-rule="evenodd"/><path d="M707 80.4004C707 76.8656 709.866 74 713.4 74L883.6 74C887.134 74 890 76.8656 890 80.4004L890 163.6C890 167.134 887.134 170 883.6 170L713.4 170C709.866 170 707 167.134 707 163.6Z" fill="#FFFFFF" fill-rule="evenodd"/><path d="M1089 80.4003C1089 76.8655 1091.87 74 1095.4 74L1264.6 74C1268.13 74 1271 76.8655 1271 80.4003L1271 163.6C1271 167.135 1268.13 170 1264.6 170L1095.4 170C1091.87 170 1089 167.135 1089 163.6Z" fill="#FFFFFF" fill-rule="evenodd"/><path d="M135 183.444C135 179.885 137.885 177 141.444 177L691.556 177C695.115 177 698 179.885 698 183.444L698 434.556C698 438.115 695.115 441 691.556 441L141.444 441C137.885 441 135 438.115 135 434.556Z" fill="#FFFFFF" fill-rule="evenodd"/><path d="M898 455.42C898 451.874 900.874 449 904.42 449L1264.58 449C1268.13 449 1271 451.874 1271 455.42L1271 705.58C1271 709.126 1268.13 712 1264.58 712L904.42 712C900.874 712 898 709.126 898 705.58Z" fill="#FFFFFF" fill-rule="evenodd"/><path d="M133 455.42C133 451.874 135.874 449 139.42 449L500.58 449C504.126 449 507 451.874 507 455.42L507 705.58C507 709.126 504.126 712 500.58 712L139.42 712C135.874 712 133 709.126 133 705.58Z" fill="#FFFFFF" fill-rule="evenodd"/><path d="M516 455.42C516 451.874 518.874 449 522.42 449L882.58 449C886.126 449 889 451.874 889 455.42L889 705.58C889 709.126 886.126 712 882.58 712L522.42 712C518.874 712 516 709.126 516 705.58Z" fill="#FFFFFF" fill-rule="evenodd"/><path d="M707 183.444C707 179.885 709.885 177 713.444 177L1264.56 177C1268.11 177 1271 179.885 1271 183.444L1271 434.556C1271 438.115 1268.11 441 1264.56 441L713.444 441C709.885 441 707 438.115 707 434.556Z" fill="#FFFFFF" fill-rule="evenodd"/></g></svg>