<svg width="1280" height="720" xmlns="http://www.w3.org/2000/svg" xmlns:xlink="http://www.w3.org/1999/xlink" overflow="hidden"><defs><clipPath id="clip0"><rect x="0" y="0" width="1280" height="720"/></clipPath></defs><g clip-path="url(#clip0)"><rect x="0" y="0" width="1280" height="720" fill="#FFFFFF"/><rect x="0.500053" y="0.500053" width="1280" height="720" stroke="#2F528F" stroke-width="1.33333" stroke-miterlimit="8" fill="#203864"/><rect x="10.5001" y="102.5" width="1259" height="618" stroke="#2F528F" stroke-width="1.33333" stroke-miterlimit="8" fill="#2F5597"/><path d="M11.5001 92.3115C11.5001 86.3405 16.3405 81.5001 22.3115 81.5001L1256.69 81.5001C1262.66 81.5001 1267.5 86.3405 1267.5 92.3115L1267.5 230.689C1267.5 236.66 1262.66 241.5 1256.69 241.5L22.3115 241.5C16.3405 241.5 11.5001 236.66 11.5001 230.689Z" stroke="#2F528F" stroke-width="1.33333" stroke-miterlimit="8" fill="#FFFFFF" fill-rule="evenodd"/><path d="M11.5001 254.77C11.5001 249.098 16.0982 244.5 21.7702 244.5L1258.23 244.5C1263.9 244.5 1268.5 249.098 1268.5 254.77L1268.5 386.23C1268.5 391.902 1263.9 396.5 1258.23 396.5L21.7702 396.5C16.0982 396.5 11.5001 391.902 11.5001 386.23Z" stroke="#2F528F" stroke-width="1.33333" stroke-miterlimit="8" fill="#FFFFFF" fill-rule="evenodd"/><rect x="12.5001" y="438.5" width="1259" height="282" stroke="#2F528F" stroke-width="1.33333" stroke-miterlimit="8" fill="#2F5597"/><path d="M10.5001 411.041C10.5001 405.22 15.2195 400.5 21.0413 400.5L1258.96 400.5C1264.78 400.5 1269.5 405.22 1269.5 411.041L1269.5 545.959C1269.5 551.781 1264.78 556.5 1258.96 556.5L21.0413 556.5C15.2195 556.5 10.5001 551.781 10.5001 545.959Z" stroke="#2F528F" stroke-width="1.33333" stroke-miterlimit="8" fill="#FFFFFF" fill-rule="evenodd"/><path d="M10.5001 570.244C10.5001 564.31 15.3103 559.5 21.2439 559.5L1259.76 559.5C1265.69 559.5 1270.5 564.31 1270.5 570.244L1270.5 707.756C1270.5 713.69 1265.69 718.5 1259.76 718.5L21.2439 718.5C15.3103 718.5 10.5001 713.69 10.5001 707.756Z" stroke="#2F528F" stroke-width="1.33333" stroke-miterlimit="8" fill="#FFFFFF" fill-rule="evenodd"/></g></svg>